<svg width="37" height="37" viewBox="0 0 37 37" fill="none" xmlns="http://www.w3.org/2000/svg">
<rect x="0.375" y="0.980469" width="35.9326" height="35.9326" rx="8" fill="#FFF2D0"/>
<path d="M18.2734 8.9375C12.4745 8.9375 7.77344 13.6386 7.77344 19.4375C7.77344 25.2364 12.4745 29.9375 18.2734 29.9375C24.0724 29.9375 28.7734 25.2364 28.7734 19.4375C28.7669 13.6413 24.0696 8.94399 18.2734 8.9375ZM26.405 13.974L25.6773 17.0673L21.8435 18.3451L18.6234 15.7695V11.9744L22.2984 10.5045C23.9623 11.2583 25.3838 12.4594 26.405 13.974ZM26.4634 24.8083L22.9925 25.3564L21.1025 22.8597L22.0653 19.0097L25.8565 17.7463L28.0283 20.3523C27.8803 21.9436 27.3428 23.474 26.4634 24.8083ZM13.5698 25.3588L10.0835 24.8083C9.20403 23.4736 8.66672 21.9429 8.5189 20.3513L10.689 17.7453L14.4802 19.0087L15.443 22.8608L13.5698 25.3588ZM8.47651 19.3069C8.49514 17.7456 8.88906 16.2115 9.62495 14.8344L10.1927 17.2493L8.47651 19.3069ZM16.0967 22.5875L15.1682 18.8698L18.2734 16.3858L21.3793 18.8708L20.4502 22.5875H16.0967ZM26.3542 17.2479L26.9219 14.833C27.6578 16.2101 28.0517 17.7441 28.0704 19.3056L26.3542 17.2479ZM21.344 10.1328L18.2734 11.3608L15.1865 10.1384C17.1846 9.47241 19.3446 9.47053 21.344 10.1328ZM14.2317 10.5125L17.9234 11.9756V15.7695L14.7034 18.3451L10.8696 17.0673L10.1419 13.974C11.1596 12.4648 12.575 11.2668 14.2317 10.5125ZM10.6683 25.6093L13.5134 26.0588L15.234 28.7539C13.442 28.1653 11.8571 27.0738 10.6683 25.6093ZM16.2375 29.0234L14.149 25.7536L15.9984 23.2875H20.5484L22.4244 25.7655L20.6045 28.955C19.1729 29.3076 17.6801 29.3315 16.2379 29.0251L16.2375 29.0234ZM21.5767 28.6631L23.0685 26.0525L25.88 25.609C24.7505 26.9999 23.2625 28.0559 21.5767 28.6631Z" fill="#B27E02"/>
</svg>
