<svg width="30" height="30" viewBox="0 0 49 49" fill="none" xmlns="http://www.w3.org/2000/svg">
<g filter="url(#filter0_d_1_3248)">
<circle cx="24.4004" cy="24.6006" r="20" fill="white"/>
</g>
<g clip-path="url(#clip0_1_3248)">
<path d="M25.9913 24.6008L33.071 17.5219C33.5105 17.0824 33.5105 16.3699 33.071 15.9304C32.6315 15.491 31.919 15.491 31.4796 15.9304L24.4006 23.0101L17.3217 15.9304C16.8822 15.491 16.1697 15.491 15.7302 15.9304C15.2908 16.3699 15.2908 17.0824 15.7302 17.5219L22.8099 24.6008L15.7302 31.6798C15.2908 32.1193 15.2908 32.8318 15.7302 33.2712C16.1697 33.7106 16.8822 33.7107 17.3217 33.2712L24.4006 26.1915L31.4796 33.2712C31.919 33.7107 32.6315 33.7107 33.071 33.2712C33.5104 32.8317 33.5104 32.1192 33.071 31.6798L25.9913 24.6008Z" fill="black"/>
</g>
<defs>
<filter id="filter0_d_1_3248" x="0.400391" y="0.600586" width="48" height="48" filterUnits="userSpaceOnUse" color-interpolation-filters="sRGB">
<feFlood flood-opacity="0" result="BackgroundImageFix"/>
<feColorMatrix in="SourceAlpha" type="matrix" values="0 0 0 0 0 0 0 0 0 0 0 0 0 0 0 0 0 0 127 0" result="hardAlpha"/>
<feOffset/>
<feGaussianBlur stdDeviation="2"/>
<feComposite in2="hardAlpha" operator="out"/>
<feColorMatrix type="matrix" values="0 0 0 0 0 0 0 0 0 0 0 0 0 0 0 0 0 0 0.12 0"/>
<feBlend mode="normal" in2="BackgroundImageFix" result="effect1_dropShadow_1_3248"/>
<feBlend mode="normal" in="SourceGraphic" in2="effect1_dropShadow_1_3248" result="shape"/>
</filter>
<clipPath id="clip0_1_3248">
<rect width="18" height="18" fill="white" transform="translate(15.4004 15.6006)"/>
</clipPath>
</defs>
</svg>
