<svg width="37" height="37" viewBox="0 0 37 37" fill="none" xmlns="http://www.w3.org/2000/svg">
<rect x="0.375" y="0.980469" width="35.9326" height="35.9326" rx="8" fill="#FFF2D0"/>
<g clip-path="url(#clip0_1_3317)">
<path d="M28.1494 25.4734C27.7402 25.219 27.7379 25.9398 27.6501 26.1487C27.0738 27.5184 25.4844 28.608 23.9985 28.608C22.2156 28.608 20.7249 27.3339 20.3885 25.6486C20.3888 25.6421 20.3895 25.6357 20.3895 25.6292C20.3895 25.4485 20.3658 25.2733 20.3217 25.1063C20.3188 25.0468 20.3172 24.987 20.3172 24.9268C20.3172 23.3871 21.2676 22.0653 22.6124 21.5168L23.6036 25.0379C23.6546 25.2188 23.8191 25.3371 23.9983 25.3371C24.035 25.3371 24.0725 25.3321 24.1096 25.3216C24.3277 25.2602 24.4547 25.0337 24.3933 24.8156L23.402 21.2942C23.5962 21.2624 23.7954 21.2456 23.9985 21.2456C25.4632 21.2456 26.7882 22.1132 27.3742 23.456C27.4648 23.6636 27.5336 26.6713 28.1494 25.4734C28.8018 25.4734 28.2166 23.3355 28.126 23.1278C27.4096 21.4861 25.7894 20.4253 23.9985 20.4253C23.7185 20.4253 23.4445 20.4512 23.1785 20.5004L23.1433 20.3755C23.0247 19.954 22.9361 19.5251 22.8777 19.0922L22.8777 19.0917C22.8439 18.8411 22.82 18.5892 22.8067 18.3364C22.844 18.5245 23.0099 18.6663 23.209 18.6663H23.7694C24.5452 18.6663 25.1765 18.0351 25.1765 17.2593C25.1765 16.4834 24.5452 15.8522 23.7694 15.8522H22.539L19.3934 13.0648C19.5566 13.1121 19.7289 13.1381 19.9071 13.1381C20.9248 13.1381 21.7528 12.3101 21.7528 11.2924C21.7528 10.2746 20.9248 9.44666 19.9071 9.44666C18.8894 9.44666 18.0614 10.2746 18.0614 11.2924C18.0614 11.6391 18.1577 11.9637 18.3247 12.2412C18.0312 12.1075 17.7102 12.0367 17.378 12.0367C16.7674 12.0367 16.1934 12.2745 15.7616 12.7062L12.4032 16.0646C12.4023 16.0655 12.4016 16.0666 12.4007 16.0675C12.3899 16.0785 12.3797 16.0901 12.37 16.1025C12.3689 16.1039 12.3677 16.1052 12.3666 16.1067L12.3654 16.1082C12.1521 16.3918 12.0304 16.7316 12.0046 17.098H11.1985C10.972 17.098 10.7883 17.2817 10.7883 17.5081V18.01C10.7883 18.8641 11.4831 19.5589 12.3372 19.5589H12.8235L12.6132 20.4671C12.413 20.4398 12.2089 20.4254 12.0015 20.4254C9.51936 20.4252 7.5 22.4446 7.5 24.9267C7.5 26.4464 8.25702 27.7924 9.41366 28.6079H7.91016C7.68363 28.6079 7.5 28.7916 7.5 29.0181C7.5 29.2446 7.68363 29.4282 7.91016 29.4282H12.0015C14.227 29.4282 16.0802 27.8047 16.4397 25.68C16.4647 25.8824 16.6371 26.0393 16.8463 26.0393H19.6362C19.905 27.0926 20.5461 27.9984 21.4106 28.6079H18.8066C18.5801 28.6079 18.3965 28.7916 18.3965 29.0181C18.3965 29.2446 18.5801 29.4282 18.8066 29.4282H23.9985C25.8154 29.4282 27.4447 28.3461 28.1494 26.6713C28.2372 26.4625 28.7315 24.196 28.1494 25.4734ZM22.7936 16.6724H23.7694C24.0929 16.6724 24.3561 16.9356 24.3561 17.2592C24.3561 17.5827 24.0929 17.8459 23.7694 17.8459H23.209C22.9967 17.8459 22.8222 18.0071 22.801 18.2137C22.7961 18.09 22.7936 17.9663 22.7936 17.8424V16.6724ZM22.013 18.7385H17.9023C17.8366 18.6601 17.7676 18.584 17.6947 18.511L16.402 17.2183L18.105 15.5153L21.9851 18.3258C21.9916 18.4636 22.0009 18.6012 22.013 18.7385ZM21.4078 19.5588L18.8945 21.8355L18.655 20.3474C18.6545 20.3445 18.6541 20.3417 18.6535 20.3388C18.604 20.0677 18.523 19.8065 18.4135 19.5588H21.4078ZM19.9071 10.2669C20.4725 10.2669 20.9325 10.7269 20.9325 11.2923C20.9325 11.8577 20.4725 12.3177 19.9071 12.3177C19.3417 12.3177 18.8817 11.8577 18.8817 11.2923C18.8817 10.7269 19.3417 10.2669 19.9071 10.2669ZM16.3417 13.2862C16.6185 13.0093 16.9865 12.8569 17.378 12.8569C17.7695 12.8569 18.1375 13.0093 18.4144 13.2862L21.9733 16.4469V17.3044L18.303 14.6458C18.2307 14.5935 18.1464 14.5678 18.0625 14.5678C17.9568 14.5678 17.8517 14.6085 17.7723 14.6879L15.7009 16.7594L14.3321 16.3815L13.4813 16.1466L16.3417 13.2862ZM12.3372 18.7385C11.9355 18.7385 11.6087 18.4117 11.6087 18.01V17.9182H12.101C12.1921 18.2205 12.3407 18.5004 12.5326 18.7385H12.3372ZM12.0015 28.6079C9.97168 28.6079 8.32031 26.9566 8.32031 24.9267C8.32031 22.8969 9.97168 21.2456 12.0015 21.2456C12.1455 21.2456 12.2875 21.2541 12.4272 21.2703L11.6019 24.8343C11.5737 24.9561 11.6026 25.0841 11.6804 25.182C11.7582 25.2799 11.8764 25.3369 12.0015 25.3369H15.6597C15.4551 27.1744 13.8927 28.6079 12.0015 28.6079ZM12.5175 24.5166L13.2263 21.4554C14.532 21.9174 15.5015 23.0962 15.6597 24.5166H12.5175ZM13.4124 20.652L13.6642 19.5645L15.6301 20.6996L16.2756 23.5137C15.8287 22.1656 14.7608 21.0981 13.4124 20.652ZM16.3896 20.3421C16.3642 20.231 16.2937 20.1356 16.195 20.0786L13.5397 18.5453C13.2009 18.3497 12.9365 17.964 12.8498 17.5388C12.7977 17.2833 12.8132 17.0413 12.8923 16.835L14.0867 17.1648L15.6085 17.5849L17.1147 19.0911C17.4954 19.4718 17.7482 19.9527 17.8458 20.4821L18.3442 23.5785C18.3423 23.5785 18.3406 23.5784 18.3387 23.5784H17.1321L16.3896 20.3421ZM17.2565 25.219V24.3987H18.3387C18.8734 24.3987 19.3296 24.7415 19.4989 25.219H17.2565ZM19.5915 24.0072C19.4726 23.9152 19.3436 23.8359 19.2061 23.7714L19.05 22.8014L22.1949 19.9526C22.2409 20.1691 22.2937 20.3843 22.3537 20.5977L22.389 20.723C20.9773 21.2653 19.9059 22.4989 19.5915 24.0072Z" fill="#B27E02"/>
<path d="M17.4832 28.7282C17.4069 28.6515 17.3015 28.608 17.1932 28.608C17.0854 28.608 16.9795 28.6515 16.9033 28.7282C16.827 28.8045 16.7831 28.9099 16.7831 29.0182C16.7831 29.1261 16.827 29.2319 16.9033 29.3082C16.9795 29.3844 17.0854 29.4283 17.1932 29.4283C17.3011 29.4283 17.4069 29.3845 17.4832 29.3082C17.5599 29.2319 17.6034 29.1261 17.6034 29.0182C17.6034 28.9099 17.5599 28.8045 17.4832 28.7282Z" fill="#B27E02"/>
</g>
<defs>
<clipPath id="clip0_1_3317">
<rect width="21" height="21" fill="white" transform="translate(7.5 8.9375)"/>
</clipPath>
</defs>
</svg>
