<svg width="37" height="37" viewBox="0 0 37 37" fill="none" xmlns="http://www.w3.org/2000/svg">
<rect x="0.375" y="0.980469" width="35.9326" height="35.9326" rx="8" fill="#FFF2D0"/>
<g clip-path="url(#clip0_1_3312)">
<path d="M23.4833 8.94719C23.9345 9.25644 24.182 9.67821 24.289 10.211C24.3312 10.5726 24.335 10.9652 24.125 11.2774C23.9901 11.4119 23.8597 11.4839 23.6738 11.5235C23.6215 11.6907 23.649 11.8064 23.6946 11.9729C23.7546 12.2217 23.7112 12.4086 23.5918 12.6309C23.4269 12.8159 23.4269 12.8159 23.3047 12.877C23.2793 12.9523 23.2566 13.0286 23.2355 13.1051C23.1365 13.4134 22.9825 13.6273 22.7048 13.7973C22.3758 13.9496 22.0811 13.9206 21.7486 13.7998C21.7206 13.7901 21.6925 13.7803 21.6636 13.7702C21.5953 13.7463 21.5271 13.7219 21.459 13.6973C21.5006 13.9097 21.5669 14.0868 21.6615 14.2818C21.9505 14.8929 22.1135 15.7098 21.9383 16.3736C21.8684 16.694 22.0104 17.0067 22.1152 17.3067C22.5487 17.3093 22.9821 17.3096 23.4156 17.3072C23.4767 17.3069 23.5377 17.3066 23.5988 17.3063C23.7862 17.3055 23.9735 17.3027 24.1609 17.299C24.208 17.2988 24.2551 17.2985 24.3037 17.2983C24.596 17.2905 24.8205 17.2333 25.0859 17.1095C25.5029 16.9161 26.0724 16.9021 26.509 17.0426C26.7795 17.16 26.9575 17.3376 27.0961 17.5964C27.2075 17.8803 27.2113 18.1997 27.1254 18.491C26.9451 18.8919 26.6487 19.0792 26.2509 19.2367C25.8915 19.3566 25.5388 19.3487 25.176 19.2472C24.8315 19.1642 24.5152 19.227 24.1702 19.2852C23.7067 19.3608 23.7067 19.3608 23.5303 19.2549C23.4566 19.1321 23.4476 19.047 23.4429 18.9063C23.4831 18.7785 23.5653 18.735 23.6738 18.6602C23.7922 18.6259 23.7922 18.6259 23.9217 18.6068C23.9691 18.5998 24.0166 18.5927 24.0655 18.5855C24.1393 18.5755 24.1393 18.5755 24.2147 18.5654C24.2632 18.5579 24.3116 18.5505 24.3615 18.5428C24.708 18.4935 25.0196 18.4868 25.358 18.5807C25.6545 18.6587 25.8994 18.6425 26.175 18.504C26.2983 18.4312 26.3799 18.3678 26.4629 18.25C26.5034 18.0722 26.4842 17.9565 26.3885 17.8014C26.2088 17.632 25.9909 17.6625 25.7566 17.664C25.4765 17.6854 25.2298 17.7817 24.9786 17.9031C24.8215 17.9702 24.6717 17.9823 24.5023 17.9839C24.4719 17.9847 24.4414 17.9854 24.4101 17.9862C24.3108 17.9884 24.2115 17.9898 24.1122 17.9911C24.043 17.9924 23.9738 17.9937 23.9046 17.995C23.7263 17.9982 23.548 18.0005 23.3697 18.0026C23.2659 18.0039 23.162 18.0056 23.0582 18.0073C22.8972 18.01 22.7362 18.012 22.5752 18.0133C22.5151 18.0139 22.4549 18.0147 22.3948 18.0156C22.311 18.0168 22.2272 18.0172 22.1434 18.0174C22.0726 18.018 22.0726 18.018 22.0003 18.0186C21.8503 18.0019 21.752 17.9581 21.623 17.8809C21.566 17.8029 21.566 17.8029 21.5307 17.7194C21.5187 17.692 21.5066 17.6645 21.4942 17.6363C21.4826 17.6087 21.471 17.5812 21.459 17.5528C21.432 17.4979 21.4047 17.4432 21.3769 17.3887C21.1047 17.6331 20.852 17.9023 20.7207 18.25C20.7679 18.4109 20.8901 18.5144 21.0099 18.6264C21.0898 18.7012 21.0898 18.7012 21.1557 18.7773C21.2608 18.8825 21.3462 18.9452 21.4994 18.9497C21.6594 18.9403 21.8162 18.9177 21.9742 18.8919C22.1763 18.8592 22.3927 18.8253 22.5843 18.9089C22.6809 19.0286 22.6868 19.1235 22.6894 19.2754C22.6535 19.3908 22.6535 19.3908 22.5664 19.4805C22.4387 19.5203 22.3285 19.5437 22.1973 19.5625C22.1509 19.5701 22.1046 19.5777 22.0569 19.5855C21.2732 19.7074 21.2732 19.7074 20.9258 19.4805C20.7786 19.3589 20.6411 19.2272 20.5042 19.0942C20.4044 18.9893 20.4044 18.9893 20.3105 18.9473C20.2941 18.9908 20.2941 18.9908 20.2773 19.0351C20.2263 19.1576 20.1673 19.2713 20.1039 19.3877C20.0682 19.4534 20.0682 19.4534 20.0318 19.5203C19.9946 19.5882 19.9946 19.5882 19.9568 19.6574C19.9317 19.7034 19.9066 19.7494 19.8808 19.7969C19.8191 19.9102 19.7572 20.0235 19.6953 20.1368C19.8206 20.2357 19.9503 20.3138 20.0902 20.3905C20.1357 20.4156 20.1812 20.4407 20.2281 20.4665C20.252 20.4796 20.2759 20.4927 20.3006 20.5063C20.4258 20.575 20.5506 20.6443 20.6755 20.7135C20.7004 20.7273 20.7253 20.7411 20.751 20.7554C20.9695 20.8765 21.1879 20.9977 21.4051 21.1211C21.4352 21.1378 21.4653 21.1546 21.4963 21.1718C21.9332 21.4219 22.2281 21.7393 22.3972 22.2183C22.5114 22.6547 22.4712 23.0932 22.2793 23.5C22.1548 23.705 21.998 23.8651 21.8281 24.0332C21.7928 24.069 21.7576 24.1047 21.7212 24.1416C21.6863 24.1769 21.6513 24.2122 21.6153 24.2486C21.5801 24.2843 21.5448 24.3201 21.5085 24.3569C21.4014 24.4593 21.3653 24.4819 21.218 24.4947C21.0725 24.483 21.0214 24.4712 20.9258 24.3614C20.8849 24.2144 20.8634 24.1207 20.9283 23.9797C21.0536 23.8055 21.2118 23.6663 21.3695 23.5215C21.582 23.3178 21.7116 23.1044 21.7679 22.813C21.7636 22.5081 21.6846 22.2763 21.4949 22.0363C21.1733 21.7777 20.7879 21.5931 20.4285 21.3929C20.3814 21.3666 20.3343 21.3403 20.2859 21.3132C20.1711 21.2491 20.0562 21.1851 19.9414 21.1211C19.9236 21.1679 19.9236 21.1679 19.9054 21.2156C19.847 21.3559 19.7654 21.4758 19.6799 21.6005C19.6434 21.6545 19.6068 21.7086 19.5703 21.7626C19.5509 21.7913 19.5315 21.8199 19.5114 21.8494C19.3992 22.0154 19.2885 22.1823 19.1775 22.349C19.1351 22.4127 19.0927 22.4763 19.0503 22.5399C19.0232 22.5804 19.0232 22.5804 18.9957 22.6217C18.9765 22.6504 18.9765 22.6504 18.957 22.6797C19.2238 22.7876 19.2238 22.7876 19.4926 22.8899C19.5248 22.9018 19.557 22.9136 19.5902 22.9258C19.6231 22.9377 19.6561 22.9495 19.69 22.9617C19.7951 23.0172 19.841 23.0695 19.9004 23.1719C19.9004 23.3368 19.8821 23.4276 19.785 23.5616C19.6332 23.633 19.5828 23.6181 19.421 23.5923C19.2707 23.5745 19.1893 23.5683 19.0533 23.6374C18.9459 23.7227 18.8491 23.8133 18.7519 23.9102C18.7006 23.9563 18.7006 23.9563 18.6483 24.0033C18.0435 24.5652 17.681 25.3958 17.3164 26.125C17.5736 26.301 17.8307 26.477 18.0957 26.6582C18.2309 26.5906 18.2907 26.5551 18.3898 26.4527C18.4257 26.4162 18.4257 26.4162 18.4623 26.3789C18.4868 26.3535 18.5113 26.3281 18.5366 26.3019C18.6831 26.1511 18.8294 26.004 18.9897 25.8677C19.1249 25.7515 19.2482 25.6277 19.371 25.4984C19.4073 25.4605 19.4437 25.4226 19.4811 25.3835C19.5373 25.3245 19.5934 25.2656 19.6487 25.2058C19.9579 24.8725 19.9579 24.8725 20.1198 24.8257C20.2536 24.8228 20.3408 24.8469 20.4541 24.9176C20.5435 25.063 20.5465 25.1362 20.5156 25.3047C20.3097 25.6046 20.0089 25.8587 19.7517 26.115C19.6775 26.189 19.6035 26.2632 19.5296 26.3374C19.0898 26.7772 19.0898 26.7772 18.8452 26.9719C18.7789 27.0296 18.7789 27.0296 18.793 27.1504C18.871 27.2285 18.986 27.1968 19.0899 27.1972C19.127 27.1972 19.1642 27.1972 19.2024 27.1971C19.2416 27.1972 19.2807 27.1973 19.321 27.1975C19.4533 27.1978 19.5855 27.1979 19.7177 27.1979C19.8121 27.1981 19.9064 27.1983 20.0008 27.1986C20.2045 27.199 20.4083 27.1994 20.612 27.1996C20.9339 27.2001 21.2557 27.2009 21.5776 27.2018C21.6877 27.2021 21.7977 27.2024 21.9077 27.2027C21.9352 27.2028 21.9627 27.2029 21.9911 27.2029C22.3043 27.2038 22.6176 27.2046 22.9309 27.2053C22.9595 27.2054 22.9882 27.2054 23.0177 27.2055C23.482 27.2066 23.9463 27.2074 24.4107 27.208C24.887 27.2088 25.3633 27.2099 25.8396 27.2115C26.1072 27.2124 26.3748 27.213 26.6424 27.2131C26.894 27.2132 27.1456 27.2139 27.3973 27.2149C27.4898 27.2152 27.5823 27.2153 27.6749 27.2152C27.8008 27.215 27.9268 27.2156 28.0527 27.2164C28.0897 27.2162 28.1267 27.2159 28.1647 27.2157C28.1984 27.2161 28.232 27.2164 28.2667 27.2168C28.2958 27.2169 28.3249 27.2169 28.3549 27.217C28.4551 27.2372 28.492 27.2762 28.5547 27.3555C28.571 27.444 28.571 27.444 28.5701 27.5401C28.5704 27.5718 28.5707 27.6035 28.571 27.6362C28.5506 27.7468 28.5182 27.7777 28.4316 27.8477C28.3076 27.8595 28.1921 27.8638 28.068 27.8625C28.0304 27.8626 27.9928 27.8627 27.954 27.8628C27.8274 27.863 27.7009 27.8623 27.5743 27.8617C27.4837 27.8616 27.3932 27.8617 27.3027 27.8617C27.0564 27.8618 26.8102 27.861 26.5639 27.8602C26.3068 27.8594 26.0496 27.8593 25.7924 27.8592C25.3606 27.8589 24.9288 27.8581 24.497 27.857C24.0522 27.8559 23.6075 27.855 23.1627 27.8545C23.1353 27.8544 23.1079 27.8544 23.0796 27.8544C22.9421 27.8542 22.8046 27.854 22.6671 27.8539C21.5261 27.8526 20.3851 27.8504 19.2441 27.8477C19.2577 27.8883 19.2712 27.9289 19.2851 27.9707C19.3198 28.4709 19.2864 28.8693 18.9471 29.2639C18.7177 29.4561 18.4933 29.4764 18.2042 29.4691C17.9486 29.4319 17.7708 29.3062 17.5625 29.1602C17.5169 29.13 17.4712 29.0999 17.4253 29.07C17.3241 29.0037 17.2235 28.9364 17.1233 28.8684C16.9911 28.779 16.8577 28.6916 16.7237 28.6047C16.6852 28.5796 16.6467 28.5544 16.607 28.5285C16.5312 28.479 16.4552 28.4297 16.379 28.3808C16.1781 28.2489 16.0189 28.1279 15.8808 27.9297C15.8808 27.9027 15.8808 27.8756 15.8808 27.8477C14.6356 27.8612 13.3904 27.8748 12.1074 27.8887C12.0533 28.0105 11.9991 28.1323 11.9433 28.2579C11.8037 28.4988 11.6292 28.6834 11.3691 28.7911C11.0952 28.8623 10.8393 28.8474 10.5898 28.709C10.4659 28.6112 10.3645 28.5004 10.2617 28.3809C10.2279 28.3417 10.194 28.3024 10.1592 28.262C9.89256 27.9446 9.89256 27.9446 9.89256 27.8477C9.86509 27.848 9.83761 27.8482 9.80931 27.8485C9.52389 27.8512 9.23847 27.8531 8.95304 27.8545C8.84645 27.8551 8.73987 27.8559 8.63329 27.857C8.48026 27.8585 8.32726 27.8592 8.17423 27.8597C8.10251 27.8607 8.10251 27.8607 8.02935 27.8616C7.98501 27.8617 7.94068 27.8617 7.895 27.8617C7.85593 27.8619 7.81686 27.8622 7.7766 27.8625C7.66009 27.8451 7.62395 27.8183 7.55467 27.7247C7.53833 27.6362 7.53833 27.6362 7.53929 27.5401C7.53897 27.5084 7.53866 27.4766 7.53833 27.444C7.55879 27.3332 7.59091 27.3025 7.67772 27.2325C7.7548 27.2161 7.7548 27.2161 7.84229 27.2147C7.87513 27.2139 7.90797 27.2131 7.9418 27.2123C7.97705 27.212 8.0123 27.2117 8.04862 27.2115C8.10298 27.2104 8.10298 27.2104 8.15844 27.2092C8.2742 27.207 8.38995 27.2056 8.50572 27.2043C8.5842 27.2029 8.66268 27.2015 8.74116 27.2C8.93355 27.1965 9.12594 27.1938 9.31834 27.1915C9.29513 27.1633 9.27192 27.1351 9.24801 27.1061C9.21792 27.0691 9.18784 27.0321 9.15685 26.9941C9.11188 26.9391 9.11188 26.9391 9.066 26.883C8.89919 26.6591 8.93167 26.3926 8.9492 26.125C9.06239 25.7655 9.41689 25.5425 9.7032 25.3214C9.88368 25.1815 10.0584 25.0364 10.2309 24.8869C10.4237 24.72 10.6186 24.5573 10.8186 24.3992C10.9269 24.3132 11.034 24.226 11.141 24.1384C11.1788 24.1074 11.2166 24.0765 11.2555 24.0446C11.3294 23.9839 11.403 23.9229 11.4763 23.8617C12.3083 23.1702 13.1386 22.6786 14.1987 22.4319C14.3643 22.3793 14.4187 22.319 14.5005 22.1668C14.519 22.1264 14.5374 22.0861 14.5563 22.0445C14.5769 21.9997 14.5975 21.9549 14.6187 21.9088C14.7058 21.7155 14.7927 21.5222 14.8795 21.3287C14.925 21.2301 14.9723 21.1347 15.0245 21.0396C15.2047 20.6926 15.203 20.3738 15.1854 19.9905C15.175 19.7434 15.1817 19.5742 15.3066 19.3575C15.4352 19.2932 15.5786 19.2815 15.7168 19.3165C15.8267 19.4058 15.876 19.4757 15.8911 19.6182C15.8911 19.7367 15.8866 19.8544 15.8808 19.9727C15.8679 20.5274 15.9621 20.9487 16.291 21.4082C16.3249 21.4557 16.3249 21.4557 16.3596 21.5041C16.7793 22.0296 17.5053 22.27 18.1367 22.4336C18.1908 22.4336 18.245 22.4336 18.3008 22.4336C18.3724 22.3379 18.4313 22.2471 18.4905 22.144C18.5266 22.0835 18.5628 22.0231 18.5991 21.9628C18.6175 21.9319 18.636 21.901 18.655 21.8691C18.7411 21.7279 18.8334 21.5912 18.9263 21.4544C19.0811 21.2247 19.2284 20.9918 19.3672 20.752C19.3379 20.7409 19.3087 20.7299 19.2786 20.7185C19.0709 20.632 18.8785 20.5163 18.6827 20.4059C18.6177 20.3699 18.6177 20.3699 18.5513 20.3331C18.5099 20.3098 18.4685 20.2865 18.4259 20.2625C18.3692 20.2308 18.3692 20.2308 18.3114 20.1984C18.2187 20.1368 18.2187 20.1368 18.1367 20.0137C18.1195 19.8563 18.1143 19.763 18.1982 19.6266C18.3451 19.5348 18.4639 19.525 18.6289 19.5625C18.786 19.6342 18.9333 19.718 19.0801 19.8086C19.1477 19.6733 19.2154 19.5379 19.2851 19.3985C19.2493 19.3875 19.2135 19.3765 19.1767 19.3652C19.0433 19.318 18.9291 19.2618 18.8059 19.1926C18.7616 19.1678 18.7172 19.143 18.6714 19.1175C18.6244 19.0909 18.5774 19.0644 18.5289 19.037C18.4798 19.0096 18.4307 18.9823 18.3816 18.9549C18.1381 18.8191 17.8962 18.681 17.6562 18.5391C17.6135 18.5141 17.5709 18.4891 17.5269 18.4634C17.4461 18.416 17.3656 18.3679 17.2856 18.3192C17.2493 18.298 17.2131 18.2768 17.1757 18.255C17.1286 18.2267 17.1286 18.2267 17.0806 18.1979C16.986 18.1579 16.986 18.1579 16.8801 18.1981C16.7612 18.2618 16.6835 18.3393 16.5909 18.4372C16.3831 18.6555 16.3831 18.6555 16.1936 18.673C16.0449 18.6602 16.0449 18.6602 15.9449 18.5987C15.873 18.4836 15.8542 18.395 15.8571 18.2595C15.9077 18.0646 16.082 17.9441 16.2269 17.8143C16.8438 17.2285 17.1342 16.6035 17.3574 15.7891C17.2659 15.7974 17.1745 15.8071 17.0831 15.8173C17.0067 15.8252 17.0067 15.8252 16.9288 15.8332C16.6821 15.8975 16.5617 16.0875 16.4286 16.2949C16.4012 16.3373 16.3737 16.3797 16.3454 16.4234C16.3165 16.4687 16.2875 16.514 16.2577 16.5607C16.1958 16.6572 16.1339 16.7536 16.0718 16.8499C16.0561 16.8744 16.0404 16.8988 16.0242 16.924C15.9183 17.0875 15.8081 17.2472 15.695 17.4059C15.3933 17.832 15.1719 18.18 15.0918 18.6988C15.024 19.1203 14.767 19.534 14.4453 19.8086C14.1726 19.9993 13.8663 20.0171 13.543 19.9727C13.2439 19.8825 13.0135 19.7031 12.8457 19.4395C12.7 19.0923 12.7097 18.6494 12.8303 18.2936C12.9251 18.0726 13.0394 17.8121 13.2407 17.6695C13.5344 17.4539 13.6621 17.1534 13.8152 16.8334C13.8643 16.7309 13.9143 16.6289 13.9645 16.527C14.0709 16.3105 14.1761 16.0934 14.2812 15.8763C14.4032 15.6247 14.5257 15.3734 14.6491 15.1225C14.698 15.0227 14.7461 14.9225 14.7941 14.8223C15.2163 13.9534 15.2163 13.9534 15.6758 13.7793C15.876 13.7156 16.0783 13.6625 16.2819 13.6108C16.3415 13.5954 16.4011 13.58 16.4608 13.5646C16.5856 13.5325 16.7105 13.5006 16.8355 13.4691C16.9938 13.429 17.1519 13.3878 17.3099 13.3463C17.433 13.3142 17.5563 13.2827 17.6797 13.2515C17.738 13.2367 17.7962 13.2216 17.8543 13.2062C18.3483 13.076 18.8187 13.0267 19.3262 13.1231C19.3656 13.0651 19.4049 13.0069 19.4441 12.9488C19.466 12.9164 19.4879 12.8841 19.5104 12.8507C19.6219 12.6916 19.6219 12.6916 19.6474 12.5069C19.606 12.4084 19.5526 12.3528 19.4774 12.2771C19.2131 11.9818 19.1453 11.6977 19.1503 11.3071C19.1697 11.0557 19.229 10.8166 19.2933 10.5736C19.316 10.4875 19.3376 10.4012 19.3592 10.3148C19.5156 9.69835 19.7384 9.16004 20.2695 8.77543C21.2483 8.20067 22.5188 8.40364 23.4833 8.94719ZM20.7617 9.26762C20.7332 9.28502 20.7047 9.30241 20.6753 9.32033C20.2779 9.58803 20.1375 9.9673 20.0234 10.4161C20.0146 10.4502 20.0057 10.4844 19.9966 10.5196C19.9673 10.6336 19.9388 10.7478 19.9106 10.8621C19.9015 10.8987 19.8923 10.9353 19.8829 10.9729C19.8235 11.2219 19.775 11.4482 19.8671 11.6952C20.0129 11.9216 20.1867 11.9987 20.4341 12.0806C20.5181 12.1071 20.5181 12.1071 20.5976 12.0567C20.5833 12.0382 20.569 12.0198 20.5542 12.0008C20.39 11.7687 20.3375 11.5615 20.3515 11.2774C20.386 11.0966 20.4416 10.9823 20.572 10.8519C20.7598 10.7356 20.8916 10.6904 21.1129 10.716C21.151 10.7201 21.1891 10.7241 21.2284 10.7283C21.3215 10.7421 21.409 10.7621 21.5 10.7852C21.7798 10.8067 21.9881 10.7571 22.2123 10.5896C22.3535 10.4685 22.4795 10.3559 22.5715 10.193C22.6484 10.0879 22.6484 10.0879 22.792 10.0495C22.9111 10.0474 22.9879 10.0563 23.0996 10.0879C23.1446 10.3318 23.1574 10.485 23.0176 10.7032C23.0901 10.7308 23.1628 10.758 23.2355 10.7852C23.2759 10.8004 23.3164 10.8157 23.358 10.8313C23.4688 10.8736 23.4688 10.8736 23.5918 10.8672C23.691 10.6688 23.656 10.3908 23.6062 10.1809C23.4682 9.80113 23.247 9.57166 22.8869 9.39859C22.6943 9.31694 22.4976 9.2633 22.2947 9.21379C22.2517 9.20327 22.2087 9.19276 22.1645 9.18193C21.6912 9.0726 21.1931 8.99012 20.7617 9.26762ZM22.4353 11.1716C22.3551 11.2152 22.3551 11.2152 22.2774 11.2678C21.9337 11.4849 21.4575 11.4193 21.0831 11.3363C21.0582 11.3304 21.0334 11.3245 21.0078 11.3184C20.9563 11.4334 20.9563 11.4334 20.9899 11.5184C21.0719 11.6396 21.1827 11.7175 21.2949 11.8106C21.3587 12.0018 21.3583 12.1587 21.2898 12.3489C21.1751 12.5247 21.0469 12.6452 20.8437 12.7129C20.7523 12.7158 20.6609 12.7164 20.5694 12.7155C20.4969 12.7149 20.4969 12.7149 20.4228 12.7144C20.3858 12.7139 20.3487 12.7134 20.3105 12.7129C20.3015 12.7353 20.2926 12.7577 20.2833 12.7807C20.1924 12.9969 20.0855 13.1799 19.9444 13.3674C19.8927 13.4477 19.8927 13.4477 19.9069 13.5339C19.9459 13.626 19.9944 13.6966 20.0542 13.7768C20.1886 13.9707 20.2646 14.1715 20.3403 14.3939C20.4398 14.6294 20.5723 14.7518 20.7984 14.8574C20.9288 14.9017 21.0353 14.8981 21.1719 14.8868C21.0959 14.6706 21.0216 14.4596 20.9155 14.2561C20.7974 13.9936 20.7861 13.6923 20.8843 13.4214C20.9704 13.2577 21.0529 13.139 21.2129 13.0411C21.5093 12.9755 21.7631 13.084 22.03 13.2053C22.1777 13.2531 22.2548 13.2517 22.4023 13.2051C22.571 13.0835 22.5964 12.9573 22.6382 12.7591C22.7032 12.5075 22.7712 12.3893 22.9926 12.2544C23.0144 12.2433 23.0361 12.2322 23.0586 12.2207C23.0383 12.1433 23.0383 12.1433 23.0176 12.0644C22.9673 11.8423 22.9689 11.627 22.9765 11.4004C22.7265 11.2128 22.7265 11.2128 22.4353 11.1716ZM17.9291 13.8793C17.8539 13.8993 17.8539 13.8993 17.7773 13.9198C17.5413 13.9779 17.5413 13.9779 17.3164 14.0665C17.3419 14.1767 17.3676 14.2869 17.3933 14.3971C17.4004 14.428 17.4076 14.4588 17.4149 14.4906C17.459 14.6791 17.5077 14.8651 17.5625 15.0508C17.859 15.0565 18.1409 15.03 18.4339 14.9871C18.5909 14.9676 18.6864 14.9591 18.8359 15.018C18.916 15.0918 18.916 15.0918 18.9404 15.1713C18.9384 15.2132 18.9384 15.2132 18.9365 15.2559C18.9361 15.2838 18.9357 15.3117 18.9352 15.3405C18.9105 15.4428 18.8736 15.4762 18.793 15.543C18.7112 15.5683 18.7112 15.5683 18.6194 15.5819C18.5865 15.5871 18.5536 15.5923 18.5197 15.5976C18.4684 15.6048 18.4684 15.6048 18.4161 15.6122C18.3815 15.6175 18.3468 15.6229 18.3111 15.6283C18.2257 15.6414 18.1402 15.6538 18.0547 15.6661C18.0259 15.7642 17.9978 15.8624 17.9701 15.9609C17.9619 15.9885 17.9537 16.0161 17.9453 16.0446C17.88 16.2687 17.88 16.2687 17.9316 16.4864C18.0324 16.5565 18.1254 16.6108 18.2341 16.6658C18.3011 16.7013 18.368 16.7368 18.4349 16.7724C18.4905 16.8016 18.4905 16.8016 18.5473 16.8313C18.7577 16.9432 18.9655 17.06 19.1736 17.1762C19.334 17.2657 19.4946 17.3549 19.6556 17.4434C19.7334 17.4871 19.8106 17.5321 19.8867 17.5786C19.9353 17.6079 19.9353 17.6079 19.9848 17.6379C20.0124 17.6552 20.0399 17.6725 20.0684 17.6904C20.1484 17.7265 20.1484 17.7265 20.2354 17.6851C20.3248 17.6253 20.3577 17.5718 20.4105 17.4784C20.5271 17.2922 20.6674 17.1538 20.8258 17.0042C21.1281 16.7146 21.3193 16.3987 21.3414 15.9708C21.3412 15.9189 21.3412 15.9189 21.341 15.866C21.3412 15.8312 21.3413 15.7964 21.3414 15.7606C21.3397 15.6594 21.3397 15.6594 21.2949 15.543C21.2523 15.5395 21.2097 15.5359 21.1658 15.5323C20.8166 15.4989 20.5285 15.4513 20.2285 15.2559C20.1845 15.228 20.1405 15.2001 20.0952 15.1713C19.8695 14.9692 19.7678 14.6347 19.6543 14.3612C19.5433 14.1113 19.4009 13.9283 19.1544 13.8024C18.7421 13.649 18.3376 13.7659 17.9291 13.8793ZM16.2141 14.3151C16.1812 14.323 16.1482 14.3309 16.1143 14.3391C16.0822 14.3477 16.0501 14.3563 16.017 14.3653C15.988 14.3728 15.9589 14.3804 15.9289 14.3882C15.7108 14.5043 15.599 14.7334 15.4946 14.9475C15.4823 14.9723 15.4701 14.9972 15.4574 15.0228C15.4314 15.0756 15.4056 15.1285 15.3798 15.1815C15.312 15.3211 15.2432 15.4601 15.1744 15.5992C15.1542 15.6404 15.1542 15.6404 15.1335 15.6824C15.0142 15.9243 14.8892 16.1628 14.7619 16.4006C14.6623 16.5879 14.5666 16.7768 14.473 16.9672C14.4493 17.0153 14.4256 17.0634 14.4012 17.1129C14.3548 17.2074 14.3087 17.302 14.2629 17.3968C14.1308 17.6655 14.0123 17.8981 13.7685 18.0809C13.5791 18.2419 13.4338 18.4719 13.4101 18.7227C13.4014 18.9725 13.4014 18.9725 13.4968 19.1985C13.6081 19.2968 13.6498 19.3146 13.7993 19.3318C13.9516 19.3166 14.028 19.2933 14.1386 19.1872C14.3892 18.8736 14.4769 18.5276 14.522 18.1373C14.6135 17.6826 14.9958 17.2523 15.2528 16.8709C15.3076 16.7893 15.3624 16.7078 15.4171 16.6262C15.4531 16.5725 15.4892 16.5188 15.5253 16.4652C15.6281 16.312 15.7297 16.1582 15.8301 16.0033C15.8521 15.9695 15.8741 15.9357 15.8968 15.9008C15.9359 15.8407 15.9746 15.7805 16.013 15.72C16.1851 15.4566 16.3561 15.29 16.6755 15.2226C16.719 15.213 16.7624 15.2034 16.8072 15.1936C16.8399 15.1871 16.8726 15.1806 16.9062 15.1739C16.8816 14.8661 16.8143 14.5591 16.7012 14.2715C16.5227 14.212 16.3918 14.2669 16.2141 14.3151ZM17.6035 17.1016C17.5223 17.264 17.4411 17.4265 17.3574 17.5938C17.6839 17.7931 18.0166 17.9793 18.352 18.1629C18.4531 18.2183 18.5542 18.2737 18.6552 18.3292C18.6799 18.3427 18.7047 18.3563 18.7302 18.3703C18.8606 18.4419 18.99 18.5149 19.1184 18.5901C19.1446 18.6053 19.1707 18.6205 19.1976 18.6362C19.2702 18.6787 19.3425 18.7214 19.4149 18.7642C19.5276 18.8337 19.5276 18.8337 19.6543 18.8243C19.7355 18.6618 19.8167 18.4994 19.9004 18.3321C19.6076 18.1432 19.3035 17.9762 18.998 17.8091C18.8917 17.7509 18.7855 17.6925 18.6792 17.6342C18.6534 17.62 18.6275 17.6058 18.6009 17.5912C18.4544 17.5106 18.3084 17.429 18.1633 17.3458C18.1329 17.3284 18.1025 17.311 18.0712 17.293C18.0174 17.2621 17.9638 17.2309 17.9103 17.1995C17.7977 17.1348 17.736 17.1016 17.6035 17.1016ZM15.5117 21.5313C15.329 21.9577 15.329 21.9577 15.1426 22.3926C15.392 22.578 15.6432 22.7568 15.9039 22.9258C15.9288 22.9421 15.9537 22.9584 15.9794 22.9752C16.1046 23.0622 16.1046 23.0622 16.25 23.0899C16.31 23.0089 16.3651 22.9286 16.4192 22.8438C16.4345 22.8203 16.4497 22.7968 16.4655 22.7727C16.5033 22.7145 16.5407 22.6561 16.5781 22.5977C16.4717 22.4872 16.3636 22.3931 16.2397 22.3029C15.9588 22.0872 15.743 21.8281 15.5527 21.5313C15.5392 21.5313 15.5256 21.5313 15.5117 21.5313ZM17.1933 22.8438C17.1163 22.944 17.0441 23.0446 16.9729 23.1488C16.9283 23.213 16.8837 23.2772 16.8391 23.3414C16.8162 23.3745 16.7934 23.4077 16.7698 23.4418C16.6036 23.6821 16.4349 23.9208 16.2654 24.1589C16.2291 24.21 16.1929 24.2613 16.1569 24.3126C15.8122 24.8032 15.4916 25.0058 14.9375 25.2227C14.8988 25.2381 14.8602 25.2536 14.8204 25.2695C14.6905 25.3213 14.5603 25.3721 14.4299 25.4227C14.367 25.4476 14.367 25.4476 14.3029 25.4731C14.0658 25.5633 13.8789 25.6161 13.625 25.5918C13.543 25.5483 13.543 25.5483 13.5019 25.4688C13.4859 25.2897 13.4829 25.2102 13.584 25.0586C13.6869 25.0137 13.7871 24.9751 13.893 24.9386C13.9565 24.9159 14.02 24.8931 14.0834 24.8703C14.1832 24.8351 14.283 24.8 14.3828 24.7651C15.0972 24.5149 15.0972 24.5149 15.6194 23.9845C15.6376 23.9593 15.6559 23.934 15.6746 23.908C15.7328 23.8269 15.7328 23.8269 15.7988 23.7051C15.7414 23.5329 15.6173 23.478 15.4707 23.3847C15.1596 23.1858 15.1596 23.1858 15.0355 23.0846C14.9485 23.0136 14.8797 22.9625 14.7734 22.9258C14.6559 22.9436 14.5642 22.9827 14.4562 23.0324C14.3245 23.0889 14.1991 23.1243 14.0605 23.1586C13.2459 23.3614 12.5924 23.8052 11.9642 24.3495C11.8434 24.4528 11.7184 24.5507 11.5939 24.6494C11.4431 24.7696 11.2943 24.8921 11.1453 25.0144C11.0427 25.0982 10.9395 25.1812 10.8359 25.2637C10.8584 25.4353 10.9548 25.5344 11.0641 25.6636C11.098 25.704 11.1319 25.7444 11.1668 25.786C11.1929 25.8167 11.2191 25.8474 11.2461 25.879C11.5221 25.8297 11.7704 25.7427 12.0279 25.6342C12.2272 25.5544 12.3847 25.5342 12.5996 25.5508C12.6816 25.6175 12.6816 25.6175 12.7226 25.7149C12.7342 25.8564 12.7266 25.9491 12.6816 26.084C12.5989 26.1149 12.5158 26.1448 12.4314 26.1704C12.2867 26.215 12.1446 26.2659 12.0023 26.3173C11.9523 26.3352 11.9024 26.3532 11.8509 26.3716C11.8137 26.385 11.7766 26.3984 11.7383 26.4122C11.7817 26.4995 11.8256 26.5866 11.8703 26.6733C11.8963 26.7242 11.8963 26.7242 11.9228 26.7762C11.9488 26.8268 11.9488 26.8268 11.9754 26.8784C12.029 26.9942 12.0679 27.1112 12.1074 27.2325C12.5876 27.2467 13.0678 27.2577 13.5482 27.2643C13.7713 27.2675 13.9943 27.2719 14.2173 27.2789C14.4327 27.2856 14.648 27.2892 14.8636 27.2908C14.9456 27.292 15.0276 27.2942 15.1096 27.2975C15.5344 27.3303 15.5344 27.3303 15.9099 27.1723C16.047 27.004 16.1263 26.8163 16.209 26.6172C16.2485 26.5518 16.2892 26.4871 16.3325 26.4242C16.601 26.0126 16.8389 25.5897 17.0697 25.1558C17.3366 24.6546 17.6036 24.1807 17.9726 23.7461C17.9997 23.7114 18.0267 23.6767 18.0545 23.6409C18.1284 23.5512 18.2012 23.479 18.2905 23.4052C18.3283 23.3737 18.3283 23.3737 18.3668 23.3416C18.3856 23.3262 18.4044 23.3108 18.4238 23.295C18.3885 23.2018 18.3885 23.2018 18.2778 23.1697C18.2093 23.1472 18.2093 23.1472 18.1394 23.1242C18.09 23.1078 18.0405 23.0914 17.9895 23.0745C17.9636 23.0661 17.9377 23.0577 17.9111 23.049C17.832 23.0234 17.7531 22.9972 17.6742 22.971C17.4386 22.8819 17.4386 22.8819 17.1933 22.8438ZM10.2617 25.7149C10.2384 25.7357 10.2151 25.7566 10.191 25.778C10.1594 25.8062 10.1277 25.8345 10.0951 25.8636C10.0617 25.8935 10.0282 25.9235 9.99382 25.9544C9.93189 26.0086 9.86887 26.0616 9.80412 26.1124C9.77832 26.1326 9.75252 26.1529 9.72594 26.1737C9.70262 26.1913 9.6793 26.2088 9.65528 26.2268C9.59745 26.2889 9.59745 26.2889 9.58847 26.3865C9.61064 26.5271 9.66303 26.5848 9.7567 26.6916C9.79027 26.7308 9.82385 26.7699 9.85844 26.8103C9.8863 26.8425 9.8863 26.8425 9.91473 26.8753C10.0262 27.0058 10.1333 27.1399 10.2412 27.2735C10.2868 27.3296 10.3325 27.3858 10.3782 27.4419C10.4586 27.5408 10.5386 27.64 10.6182 27.7396C10.6503 27.7795 10.6824 27.8194 10.7154 27.8605C10.743 27.895 10.7705 27.9296 10.7989 27.9651C10.8746 28.0502 10.9444 28.1156 11.041 28.1758C11.1634 28.1601 11.2229 28.1206 11.3033 28.0278C11.4423 27.8275 11.5047 27.6409 11.4922 27.3965C11.4179 27.0538 11.1759 26.8009 10.959 26.5352C10.9348 26.5054 10.9106 26.4756 10.8857 26.4449C10.7604 26.2907 10.6346 26.1369 10.508 25.9837C10.4872 25.9586 10.4664 25.9334 10.4449 25.9074C10.3866 25.84 10.3256 25.7771 10.2617 25.7149ZM16.9062 26.6993C16.8177 26.8105 16.7472 26.9345 16.673 27.0556C16.6407 27.1058 16.6407 27.1058 16.6078 27.1571C16.5877 27.1897 16.5676 27.2224 16.5469 27.256C16.5283 27.2859 16.5097 27.3157 16.4905 27.3465C16.4455 27.4622 16.4586 27.5257 16.4961 27.6426C16.5653 27.714 16.5653 27.714 16.6601 27.7708C16.6972 27.7952 16.7343 27.8195 16.7725 27.8447C16.8166 27.8727 16.8607 27.9008 16.9062 27.9297C16.9598 27.9644 17.0134 27.9992 17.0669 28.034C17.1551 28.0914 17.2434 28.1485 17.3321 28.2052C17.4821 28.3013 17.6306 28.3988 17.7765 28.5011C17.804 28.5201 17.8314 28.5391 17.8597 28.5587C17.9114 28.5947 17.9628 28.6312 18.0138 28.6681C18.1701 28.7764 18.2752 28.8109 18.4648 28.7911C18.6267 28.5584 18.6715 28.3761 18.6289 28.0938C18.496 27.6321 18.0103 27.3854 17.6343 27.1402C17.5469 27.0828 17.4595 27.0253 17.3721 26.9678C17.3339 26.9428 17.2956 26.9177 17.2561 26.892C17.1898 26.8474 17.1247 26.8008 17.0617 26.7517C16.9922 26.6913 16.9922 26.6913 16.9062 26.6993Z" fill="#B27E02"/>
</g>
<defs>
<clipPath id="clip0_1_3312">
<rect width="21" height="21" fill="white" transform="translate(7.55469 8.44727)"/>
</clipPath>
</defs>
</svg>
