<svg width="37" height="37" viewBox="0 0 37 37" fill="none" xmlns="http://www.w3.org/2000/svg">
<rect x="0.375" y="0.980469" width="35.9326" height="35.9326" rx="8" fill="#FFF2D0"/>
<g clip-path="url(#clip0_1_3302)">
<path d="M17.5489 26.2442L17.5475 25.4074C17.5513 25.3668 17.548 25.3176 17.5385 25.278C17.3512 24.4991 18.0714 23.3639 18.3647 22.9921C18.4528 22.8805 18.4695 22.7284 18.4074 22.6005C18.3456 22.473 18.216 22.3914 18.0738 22.3914H17.6257C16.6807 22.3914 15.9117 23.1606 15.9117 24.1056C15.9117 24.3103 16.0776 24.4764 16.2826 24.4764C16.4873 24.4764 16.6535 24.3103 16.6535 24.1056C16.6535 23.6623 16.9514 23.2876 17.3577 23.1707C17.0231 23.7482 16.6404 24.6237 16.8073 25.4065V26.2442C16.8073 26.7696 16.6023 27.2645 16.2305 27.6368C15.8589 28.0087 15.3642 28.2134 14.8379 28.2134H13.0034C12.7987 28.2134 12.6326 28.3795 12.6326 28.5843C12.6326 28.789 12.7987 28.9551 13.0034 28.9551H14.8379C15.5624 28.9551 16.2433 28.6731 16.7551 28.1613C17.2669 27.6484 17.5489 26.9676 17.5489 26.2442Z" fill="#B27E02"/>
<path d="M15.3866 26.7159C15.5914 26.7159 15.7575 26.5498 15.7575 26.3451V24.4652C15.7575 23.8453 15.5161 23.2624 15.0779 22.8245L13.7229 21.4695C13.5437 21.2903 13.395 21.0837 13.2811 20.8567L12.593 19.481L11.755 17.5176C11.6944 17.3766 11.5522 17.2782 11.3986 17.2931C11.2446 17.2994 11.1106 17.3999 11.0621 17.5462L10.7714 18.4177C10.6809 18.6891 10.4503 18.8924 10.17 18.9489L8.59653 19.2632C8.42319 19.298 8.2981 19.4501 8.2981 19.6268V20.1908C8.2981 20.4984 8.41786 20.7872 8.63537 21.005C8.85291 21.2218 9.14191 21.3415 9.44924 21.3415H9.81383L10.1142 21.7916C10.3257 22.1093 10.3257 22.5193 10.1142 22.837C9.79258 23.3189 9.70108 23.9147 9.8626 24.471L10.1282 25.3861C10.1854 25.5831 10.3908 25.6971 10.5879 25.6386C10.7844 25.5816 10.8976 25.376 10.8404 25.1794L10.5748 24.2643C10.4744 23.9181 10.5314 23.5483 10.7313 23.2484C10.8834 23.02 10.9712 22.7644 11.0009 22.5039L12.8943 21.6364C12.987 21.7625 13.0874 21.8828 13.1985 21.9939L14.5535 23.3488C14.8517 23.6468 15.0158 24.0432 15.0158 24.4652V26.3451C15.0158 26.5498 15.1819 26.7159 15.3866 26.7159ZM10.3208 20.765C10.252 20.6617 10.1363 20.5998 10.0122 20.5998H9.4492C9.33961 20.5998 9.23674 20.5574 9.15946 20.4801C9.08342 20.4043 9.0397 20.2985 9.0397 20.1908V19.931L10.3154 19.6761C10.8372 19.5713 11.2693 19.2024 11.456 18.7065L11.9201 19.7925L12.5198 20.9924L10.9058 21.7319C10.8606 21.6104 10.8053 21.4914 10.7312 21.3801L10.3208 20.765Z" fill="#B27E02"/>
<path d="M12.9914 26.417C13.2254 26.1264 13.6377 26.0356 13.9757 26.2051L14.0221 26.2278C14.2051 26.3205 14.4279 26.2471 14.5204 26.0646C14.6129 25.882 14.5397 25.659 14.3572 25.5662L14.3036 25.5396C13.9458 25.3607 13.5431 25.3399 13.1768 25.4484L13.3732 24.5466C13.4167 24.3465 13.2898 24.149 13.0896 24.1054C12.8896 24.062 12.6922 24.1889 12.6487 24.3889L12.3518 25.752C12.3439 25.781 12.3359 25.81 12.3279 25.839L11.6297 27.9338C11.574 28.1007 11.4178 28.2134 11.2418 28.2134H11.0606L11.2009 27.9328C11.2341 27.8663 11.2626 27.7976 11.2861 27.7271L11.5976 26.7932C11.6843 26.5331 11.7242 26.2596 11.7154 25.9855L11.6809 24.9123C11.6744 24.7076 11.503 24.547 11.2983 24.5536H11.298C11.0934 24.5603 10.9329 24.7315 10.9395 24.9361L10.9741 26.0086C10.9802 26.1952 10.953 26.3814 10.894 26.5586L10.5824 27.4933C10.5681 27.5278 10.5539 27.5622 10.5396 27.5967L10.1287 28.4186C10.0712 28.5335 10.0775 28.6697 10.1451 28.7793C10.2127 28.8884 10.332 28.955 10.4604 28.955H11.2414C11.7369 28.955 12.1768 28.638 12.3335 28.1679L12.8644 26.5755L12.9914 26.417Z" fill="#B27E02"/>
<path d="M18.14 9.77146L15.7618 17.2101C15.685 17.452 15.7268 17.7085 15.8765 17.9132C16.0266 18.1179 16.2587 18.2357 16.5129 18.2357H18.5277C18.3727 18.7233 18.3705 19.2536 18.5374 19.7674C18.626 20.0396 18.7573 20.2893 18.9222 20.5118V28.4606C18.9222 28.6653 19.0881 28.8315 19.2931 28.8315C19.4978 28.8315 19.6639 28.6653 19.6639 28.4606V21.1844C20.0968 21.4535 20.6075 21.612 21.1541 21.612H22.5153V28.4592C22.5153 28.6639 22.6812 28.83 22.8862 28.83C23.0909 28.83 23.257 28.6639 23.257 28.4592V21.612H25.6552C26.7151 21.612 27.6316 20.8539 27.7869 19.8481C27.8798 19.2478 27.7065 18.6394 27.3115 18.1788C26.9216 17.7234 26.3593 17.4627 25.7692 17.4627H25.7673C25.7675 17.4525 25.7678 17.4429 25.7678 17.4337C25.7678 16.1719 24.7429 15.1459 23.4828 15.1459C23.0356 15.1459 22.6139 15.2784 22.2551 15.5069L20.4199 9.77002C20.2564 9.2654 19.8088 8.93945 19.28 8.93945C18.7513 8.93945 18.3039 9.2654 18.14 9.77146ZM25.0259 17.4337C25.0259 17.4641 25.0228 17.5032 25.0189 17.5433C25.0035 17.7089 25.0576 17.8745 25.1674 17.9987C25.2768 18.1223 25.434 18.1961 25.5979 18.201C25.6631 18.2029 25.7261 18.2043 25.7691 18.2043C26.1424 18.2043 26.4995 18.371 26.7482 18.6611C27.0022 18.9576 27.1137 19.3488 27.0538 19.7351C26.9538 20.3821 26.3527 20.8703 25.6552 20.8703H23.257V20.3725L24.2901 19.3391C24.435 19.1942 24.435 18.9595 24.2901 18.8147C24.1455 18.6698 23.9105 18.6698 23.7657 18.8147L23.257 19.3235V18.2251C23.257 18.0204 23.0909 17.8542 22.8861 17.8542C22.6811 17.8542 22.5153 18.0204 22.5153 18.2251V19.6603L22.1596 19.3048C22.0147 19.1599 21.7801 19.1599 21.6352 19.3048C21.4904 19.4497 21.4904 19.6844 21.6352 19.8292L22.5153 20.709V20.8702H21.154C20.2836 20.8702 19.4978 20.3227 19.2428 19.5385C19.0656 18.9928 19.1513 18.4221 19.478 17.9725C19.7957 17.5355 20.3022 17.2742 20.8327 17.2742C21.0176 17.2742 21.1733 17.2906 21.3076 17.3244C21.6082 17.3988 21.9209 17.2303 22.0193 16.9372C22.2301 16.3094 22.8182 15.8874 23.4827 15.8874C24.3338 15.8875 25.0259 16.581 25.0259 17.4337ZM19.28 9.68114C19.3577 9.68114 19.6187 9.70431 19.7139 9.99741L21.6548 16.0652C21.5379 16.2215 21.4365 16.3912 21.3617 16.5775C21.2011 16.5471 21.0268 16.5326 20.8327 16.5326C20.4196 16.5326 20.0188 16.6445 19.6639 16.8431V16.3981L20.5376 15.5244C20.6825 15.3795 20.6825 15.1448 20.5379 15C20.393 14.8551 20.1583 14.8551 20.0133 15L19.6639 15.3495V14.0159C19.6639 13.8112 19.4978 13.6451 19.293 13.6451C19.088 13.6451 18.9222 13.8112 18.9222 14.0159V14.9417L18.6684 14.6881C18.5235 14.5432 18.2886 14.5432 18.144 14.6881C17.9992 14.8329 17.9992 15.0676 18.144 15.2125L18.9222 15.9907V17.483C18.919 17.4868 18.9159 17.4902 18.913 17.4941H16.5129L16.4685 17.4352L18.8459 9.99889C18.9415 9.70431 19.2023 9.68114 19.28 9.68114Z" fill="#B27E02"/>
</g>
<defs>
<clipPath id="clip0_1_3302">
<rect width="21" height="21" fill="white" transform="translate(7.55469 8.44727)"/>
</clipPath>
</defs>
</svg>
